<?xml version="1.0" encoding="UTF-8"?>
<svg version="1.1" xmlns="http://www.w3.org/2000/svg" width="407" height="120">
<path d="M0 0 C3.3529984 1.17808052 5.7552529 2.19406612 8 5 C9.4992241 9.49767229 10.24904796 14.44806581 8.09375 18.8515625 C5.2109973 22.60283684 2.4840709 23.9065364 -2 25 C-5.09258791 25.16872808 -8.13749271 25.00825336 -11.2265625 24.81640625 C-12.13572418 24.76617813 -13.04488586 24.71595001 -13.9815979 24.66419983 C-25.83102319 23.93099551 -37.59962898 22.41069503 -49.375 20.9375 C-52.79931889 20.5130835 -56.22387884 20.09097323 -59.64907837 19.67372131 C-61.75653849 19.41663988 -63.86349331 19.15536813 -65.96981812 18.8891449 C-75.89816121 17.13555553 -75.89816121 17.13555553 -85 20 C-86.0953531 21.79649965 -86.0953531 21.79649965 -86 24 C-84.68099949 27.25870713 -83.73722273 28.66385292 -80.51242065 30.13424683 C-75.90280417 31.27044049 -71.59318537 31.26316883 -66.86376953 31.22705078 C-65.35552864 31.22748886 -65.35552864 31.22748886 -63.81681824 31.22793579 C-60.5053941 31.22654651 -57.19419716 31.21100405 -53.8828125 31.1953125 C-51.58210371 31.19158095 -49.28139332 31.18873465 -46.98068237 31.18673706 C-40.93411855 31.17911184 -34.88765125 31.1594728 -28.84112549 31.1373291 C-22.66753444 31.11684679 -16.49392775 31.10773024 -10.3203125 31.09765625 C1.78650068 31.07622594 13.8932423 31.04210332 26 31 C25.525625 30.401875 25.05125 29.80375 24.5625 29.1875 C21.65562126 25.11786976 21.35881953 20.85337995 22 16 C23.3613933 12.2635673 25.25491858 9.57313955 28.4375 7.125 C39.6843424 2.18736188 54.84173836 6.28644282 66.60015869 8.21304321 C79.81594483 10.36126976 92.57956947 11.74191569 106 11 C105.39816251 8.97954558 104.72693904 6.97888961 104 5 C103.34 4.67 102.68 4.34 102 4 C102 2.68 102 1.36 102 0 C105.95536688 1.31845563 108.58184307 2.5454901 111 6 C112.33939272 10.99696513 112.60745977 14.71498894 110.375 19.4375 C107.32668127 22.72647548 104.76741149 24.74319662 100.2578125 25.3984375 C86.92015206 25.2986545 73.74642975 23.26951964 60.6015625 21.1328125 C45.87605628 18.73352826 45.87605628 18.73352826 31 19 C30.34 19.66 29.68 20.32 29 21 C29.32326553 24.59679066 29.32326553 24.59679066 30 28 C35.98374384 30.57630746 40.78154938 31.44368432 47.26171875 31.43237305 C48.59483345 31.44766052 48.59483345 31.44766052 49.95487976 31.46325684 C52.8658186 31.49323119 55.77642753 31.50262889 58.6875 31.51171875 C60.71631958 31.52857698 62.74512879 31.54672875 64.77392578 31.56611633 C70.09373737 31.61349815 75.41350689 31.64338394 80.73345947 31.66955566 C86.17004705 31.69942088 91.60648986 31.74593071 97.04296875 31.79101562 C107.69523659 31.87691427 118.34753433 31.94431926 129 32 C129 32.99 129 33.98 129 35 C123.39 35 117.78 35 112 35 C112 39.62 112 44.24 112 49 C109.97875 48.9175 107.9575 48.835 105.875 48.75 C101.68957979 48.76364811 99.25516162 48.89001654 95.375 50.5625 C90.21758899 55.85563236 89.78496716 60.21808185 89.5625 67.4375 C89.71524172 74.79092263 90.69911345 79.59263324 95.9375 85 C98.43807949 86.21240218 100.25460044 86.2287833 103 86 C102.649375 85.175 102.29875 84.35 101.9375 83.5 C100.81581642 79.31238131 100.69819823 76.14364354 102 72 C104.125 69 104.125 69 107 67 C111.30274909 66.30848675 113.20945312 66.48442595 116.875 68.875 C119.61346146 71.61346146 119.95538144 72.40880413 120.25 76.3125 C119.81791438 82.68576291 116.51001271 85.73377176 112 90 C113.41468311 90.96125903 114.8318364 91.91888325 116.25 92.875 C117.03890625 93.40867187 117.8278125 93.94234375 118.640625 94.4921875 C120.71555692 95.81822015 122.77614972 96.94928175 125 98 C124.67 99.32 124.34 100.64 124 102 C120.2089881 100.55049545 116.6125362 98.84827434 113 97 C113.04640625 97.556875 113.0928125 98.11375 113.140625 98.6875 C113.42695032 104.74123525 112.49482244 109.00273053 109 114 C105.13967241 118.21942783 101.96546479 119.81173851 96.375 120.1328125 C90.83875432 119.82321981 86.44290207 118.44290207 82.5 114.5 C79.93366844 110.22278074 79.90739487 106.90807178 80 102 C79.360625 102.474375 78.72125 102.94875 78.0625 103.4375 C72.47825093 106.28660667 67.20513157 106.61981574 61.1875 104.875 C57.2576552 103.35244233 55.06769926 101.79078197 53 98 C51.61183726 92.74481247 51.71319443 87.94781569 54 83 C56.89645399 79.54519343 60.6332728 77.11967364 65 76 C67.8125 76.375 67.8125 76.375 70 77 C69.53424934 79.17350308 69.05313014 80.90780358 67.9375 82.84375 C66.80393027 85.45096039 66.96477256 86.96045341 67.375 89.75 C67.48585938 90.54921875 67.59671875 91.3484375 67.7109375 92.171875 C67.85402344 93.07679687 67.85402344 93.07679687 68 94 C74.05631435 95.13802042 74.05631435 95.13802042 79.9375 93.8125 C82.02862665 91.97484325 83.01946718 90.58504106 84 88 C83.278125 87.773125 82.55625 87.54625 81.8125 87.3125 C76.21826564 84.7018573 73.34269212 80.57216601 71 75 C70.0254202 67.54446456 69.63206261 59.79180932 74.3671875 53.58203125 C78.3017929 49.76979396 83.41845165 46.17120212 89.04296875 45.90234375 C89.75066406 45.91394531 90.45835937 45.92554688 91.1875 45.9375 C92.445625 45.958125 93.70375 45.97875 95 46 C95 42.37 95 38.74 95 35 C77.84 35 60.68 35 43 35 C43 55.79 43 76.58 43 98 C37.06 98 31.12 98 25 98 C25 77.21 25 56.42 25 35 C19.06 35 13.12 35 7 35 C7 55.79 7 76.58 7 98 C1.39 98 -4.22 98 -10 98 C-10 87.77 -10 77.54 -10 67 C-21.22 67.33 -32.44 67.66 -44 68 C-41.69 69.98 -39.38 71.96 -37 74 C-35.546875 76.2734375 -35.546875 76.2734375 -34.75 78.375 C-34.44835937 79.13683594 -34.14671875 79.89867188 -33.8359375 80.68359375 C-33.56007812 81.44800781 -33.28421875 82.21242188 -33 83 C-31.23786615 88.42925809 -31.23786615 88.42925809 -28 93 C-25.34462628 93.56520003 -22.70855287 93.73788198 -20 94 C-21 97 -21 97 -23 98 C-40.59247878 99.32416507 -40.59247878 99.32416507 -46.50390625 94.59765625 C-51.64908383 89.10319769 -53.99104202 82.62082253 -56.73046875 75.70703125 C-57.88972201 73.23514661 -58.82280925 71.81033834 -60.8125 70 C-61.534375 69.34 -62.25625 68.68 -63 68 C-63 66.68 -63 65.36 -63 64 C-62.19175781 63.90203125 -61.38351563 63.8040625 -60.55078125 63.703125 C-56.03682935 63.07149844 -52.00247975 62.48119028 -47.875 60.5 C-44.49626659 55.99502212 -43.59362058 51.01090206 -44.34375 45.453125 C-45.02829224 42.95943542 -45.53105356 41.1378417 -47 39 C-54.71978431 34.64062607 -54.71978431 34.64062607 -72 35 C-72 55.79 -72 76.58 -72 98 C-77.94 98 -83.88 98 -90 98 C-90 77.21 -90 56.42 -90 35 C-95.94 35 -101.88 35 -108 35 C-108 55.79 -108 76.58 -108 98 C-113.61 98 -119.22 98 -125 98 C-125 86.12 -125 74.24 -125 62 C-129.62 62 -134.24 62 -139 62 C-139.0825 63.815 -139.165 65.63 -139.25 67.5 C-139.73385465 73.0447128 -140.50837684 77.55805739 -144 82 C-148.92186284 86.01784722 -153.0399455 86.62850271 -159.33984375 86.39453125 C-163.39976427 85.79239913 -165.71132343 84.44901447 -169 82 C-171.98261067 77.52608399 -171.6002363 73.24456466 -171 68 C-168.69142126 63.02767655 -166.12643485 60.88318015 -161 59 C-159.35 59 -157.7 59 -156 59 C-156 51.08 -156 43.16 -156 35 C-164.91 35 -173.82 35 -183 35 C-183 55.79 -183 76.58 -183 98 C-188.94 98 -194.88 98 -201 98 C-201 77.21 -201 56.42 -201 35 C-206.61 35 -212.22 35 -218 35 C-218 55.79 -218 76.58 -218 98 C-223.94 98 -229.88 98 -236 98 C-236 83.81 -236 69.62 -236 55 C-248.36127331 55.34629053 -248.36127331 55.34629053 -260 58 C-260.66 58.99 -261.32 59.98 -262 61 C-261.31292969 61.17015625 -260.62585938 61.3403125 -259.91796875 61.515625 C-259.01691406 61.75796875 -258.11585938 62.0003125 -257.1875 62.25 C-255.84751953 62.59804687 -255.84751953 62.59804687 -254.48046875 62.953125 C-251.53986123 64.1942003 -250.53760007 65.22433234 -249 68 C-248.40239415 71.05801912 -248.48085752 73.93028792 -249 77 C-251.19831364 80.03215675 -252.44963194 80.81654398 -256 82 C-261.01103128 82.3711875 -263.99128499 82.11788946 -268 79 C-271.02729696 75.74602139 -271.4082825 73.46133702 -271.375 69.0625 C-271.38273437 68.04285156 -271.39046875 67.02320312 -271.3984375 65.97265625 C-270.76809513 61.26980776 -268.49585841 58.09856646 -265 55 C-258.6772256 51.84718688 -252.36924215 51.61415962 -245.4375 51.8125 C-244.52419922 51.82603516 -243.61089844 51.83957031 -242.66992188 51.85351562 C-240.44635273 51.88844079 -238.22309291 51.94222954 -236 52 C-236 46.39 -236 40.78 -236 35 C-249.86 35 -263.72 35 -278 35 C-278 34.01 -278 33.02 -278 32 C-215.63 31.67 -153.26 31.34 -89 31 C-89.99 29.35 -90.98 27.7 -92 26 C-93.36312307 19.9633121 -93.22613337 16.51564738 -90 11 C-86.25331885 6.94981675 -82.85386309 5.15688231 -77.38414001 4.85620117 C-70.3637425 4.85444233 -63.58106934 5.36784348 -56.62890625 6.3125 C-54.48506382 6.58623354 -52.3411823 6.85966107 -50.19726562 7.1328125 C-46.89329114 7.5625265 -43.58995004 7.99634136 -40.28735352 8.43652344 C-25.76280244 10.35874627 -11.65423933 11.41827759 3 11 C2.73343428 8.06556598 2.73343428 8.06556598 2 5 C1.01 4.34 0.02 3.68 -1 3 C-0.67 2.01 -0.34 1.02 0 0 Z M-139 35 C-139 42.92 -139 50.84 -139 59 C-134.38 59 -129.76 59 -125 59 C-125 51.08 -125 43.16 -125 35 C-129.62 35 -134.24 35 -139 35 Z M-34 35 C-32.35 36.98 -30.7 38.96 -29 41 C-26.82272687 45.04350725 -26.59998294 48.43980555 -27 53 C-28.93418809 58.08996866 -30.93122632 59.93122632 -35 64 C-26.75 64 -18.5 64 -10 64 C-10 54.43 -10 44.86 -10 35 C-17.92 35 -25.84 35 -34 35 Z M-165.875 66.6875 C-167.63264889 70.30044493 -167.38701127 73.00088356 -167 77 C-164.30844799 79.264384 -164.30844799 79.264384 -161.9375 78.75 C-159.80523025 78.07467282 -159.80523025 78.07467282 -158 76 C-157.54152311 73.63969304 -157.17856869 71.2601826 -156.875 68.875 C-156.70742187 67.59367187 -156.53984375 66.31234375 -156.3671875 64.9921875 C-156.24601562 64.00476563 -156.12484375 63.01734375 -156 62 C-159.86414611 62 -163.07093501 64.16384151 -165.875 66.6875 Z M87 91 C86.52415854 95.75841461 86.31749011 97.94321049 88.9375 102 C92.51016344 104.33316796 94.64726435 104.73925203 98.84375 104.48046875 C102.48426176 103.66926776 103.94028944 102.02519989 106 99 C107.21409153 94.39359088 107.21409153 94.39359088 106 90 C103.02077407 89.97316013 100.04178705 89.95323963 97.0625 89.9375 C96.21236328 89.92912109 95.36222656 89.92074219 94.48632812 89.91210938 C93.67744141 89.90888672 92.86855469 89.90566406 92.03515625 89.90234375 C91.2862915 89.89710693 90.53742676 89.89187012 89.76586914 89.88647461 C87.97332261 89.80658248 87.97332261 89.80658248 87 91 Z " fill="#5584AC" transform="translate(278,0)"/>
</svg>
